<svg id="Layer_1" data-name="Layer 1" xmlns="http://www.w3.org/2000/svg" viewBox="0 0 298.46 30.98"><title>coming-soon</title><path d="M9.45,16.9c0,4.3,1.6,6.61,4.37,6.61S18,21.31,18,18.46h8.72V19.8C26.67,26.59,21.29,31,13.73,31,4.86,31,0,25.4,0,16.83v-2.7C0,5.54,4.86,0,13.73,0c7.56,0,12.94,4.37,12.94,11.21V12.5H18c0-2.85-1.4-5-4.13-5S9.45,9.78,9.45,14.11Z"/><path d="M29.18,14.06C29.18,5.54,34.19,0,43.35,0S57.5,5.6,57.5,14.06v3c0,8.41-5,14-14.15,14S29.18,25.42,29.18,17Zm9.45,3c0,4.33,1.78,6.61,4.72,6.61s4.7-2.28,4.7-6.61V13.93c0-4.31-1.78-6.61-4.7-6.61s-4.72,2.3-4.72,6.61Z"/><path d="M61.33,30.48V.48H71l6.42,13.38h.31L84.13.48h9.56v30H85.41V13.75H85l-5.1,11H75.06l-5.14-11h-.44V30.48Z"/><path d="M98.75,30.48V.48H108v30Z"/><path d="M113,30.48V.48H120L130.17,15h.35V.48H139v30h-6.86L121.84,15.71h-.35V30.48Z"/><path d="M161,10.83a3.92,3.92,0,0,0-4.24-3.45c-3.08,0-4.66,2.29-4.66,6.44V17c0,3.37.86,6.62,4.9,6.62,2.9,0,4.26-1.89,4.26-3.63v-.35h-3.73V13.51h12.37v5.63C169.94,25,166.33,31,156.78,31c-10.11,0-14-6.61-14-13.95V13.71C142.8,5.84,147.63,0,156.86,0c9,0,13.08,5.58,13.08,10.83Z"/><path d="M189.76,21.29c0,1.41,1.51,2.92,4.39,2.92s3.78-1.12,3.78-2.35c0-1.54-1.49-2.06-4.2-2.55l-3.62-.63c-5-.88-8.53-3.37-8.53-8.92,0-6.2,5-9.76,12.46-9.76,8.48,0,12.28,4.81,12.28,9.49H198c0-1.25-1.25-2.83-3.91-2.83-2.35,0-3.34,1.07-3.34,2.35s1.48,2,3.91,2.33l3.85.59c4.15.62,8.46,2.75,8.46,8.94,0,5.85-4.2,10.11-13,10.11-9.84,0-12.83-5.07-12.85-9.69Z"/><path d="M209.44,14.06c0-8.52,5-14.06,14.18-14.06s14.15,5.6,14.15,14.06v3c0,8.41-5,14-14.15,14s-14.18-5.56-14.18-14Zm9.45,3c0,4.33,1.78,6.61,4.73,6.61s4.7-2.28,4.7-6.61V13.93c0-4.31-1.78-6.61-4.7-6.61s-4.73,2.3-4.73,6.61Z"/><path d="M240.36,14.06c0-8.52,5-14.06,14.17-14.06s14.15,5.6,14.15,14.06v3c0,8.41-5,14-14.15,14s-14.17-5.56-14.17-14Zm9.45,3c0,4.33,1.78,6.61,4.72,6.61s4.7-2.28,4.7-6.61V13.93c0-4.31-1.78-6.61-4.7-6.61s-4.72,2.3-4.72,6.61Z"/><path d="M272.5,30.48V.48h6.93L289.64,15H290V.48h8.46v30H291.6L281.32,15.71H281V30.48Z"/></svg>