<svg id="Layer_1" data-name="Layer 1" xmlns="http://www.w3.org/2000/svg" viewBox="0 0 299.46 31.98"><defs><style>.cls-1{stroke:#000;stroke-miterlimit:10;}</style></defs><title>coming-soon</title><path class="cls-1" d="M10,17.4c0,4.3,1.6,6.61,4.37,6.61s4.13-2.2,4.13-5.05h8.72V20.3c0,6.79-5.38,11.18-12.94,11.18C5.36,31.48.5,25.9.5,17.33v-2.7C.5,6,5.36.5,14.23.5c7.56,0,12.94,4.37,12.94,11.21V13H18.45c0-2.85-1.4-5-4.13-5S10,10.28,10,14.61Z"/><path class="cls-1" d="M29.68,14.56C29.68,6,34.69.5,43.85.5S58,6.1,58,14.56v3c0,8.41-5,14-14.15,14s-14.17-5.56-14.17-14Zm9.45,3c0,4.33,1.78,6.61,4.72,6.61s4.7-2.28,4.7-6.61V14.43c0-4.31-1.78-6.61-4.7-6.61s-4.72,2.3-4.72,6.61Z"/><path class="cls-1" d="M61.83,31V1h9.64l6.42,13.39h.31L84.63,1h9.56V31H85.91V14.27h-.42l-5.1,11H75.56l-5.14-11H70V31Z"/><path class="cls-1" d="M99.25,31V1h9.22V31Z"/><path class="cls-1" d="M113.53,31V1h6.92L130.67,15.5H131V1h8.46V31h-6.86L122.34,16.22H122V31Z"/><path class="cls-1" d="M161.54,11.33a3.92,3.92,0,0,0-4.24-3.45c-3.08,0-4.66,2.29-4.66,6.44v3.16c0,3.37.86,6.62,4.9,6.62,2.9,0,4.26-1.89,4.26-3.63v-.35h-3.73V14h12.37v5.63c0,5.89-3.61,11.84-13.16,11.84-10.11,0-14-6.61-14-13.95V14.21C143.3,6.34,148.13.5,157.36.5c9,0,13.08,5.58,13.08,10.83Z"/><path class="cls-1" d="M190.26,21.79c0,1.41,1.51,2.92,4.39,2.92s3.78-1.12,3.78-2.35c0-1.54-1.49-2.06-4.2-2.55l-3.62-.63c-5-.88-8.53-3.37-8.53-8.92,0-6.2,5-9.76,12.46-9.76C203,.5,206.82,5.31,206.82,10h-8.35c0-1.25-1.25-2.83-3.91-2.83-2.35,0-3.34,1.07-3.34,2.35s1.48,2,3.91,2.33l3.85.59c4.15.62,8.46,2.75,8.46,8.94,0,5.85-4.2,10.11-13,10.11-9.84,0-12.83-5.07-12.85-9.69Z"/><path class="cls-1" d="M209.94,14.56C209.94,6,215,.5,224.12.5s14.15,5.6,14.15,14.06v3c0,8.41-5,14-14.15,14s-14.18-5.56-14.18-14Zm9.45,3c0,4.33,1.78,6.61,4.73,6.61s4.7-2.28,4.7-6.61V14.43c0-4.31-1.78-6.61-4.7-6.61s-4.73,2.3-4.73,6.61Z"/><path class="cls-1" d="M240.86,14.56C240.86,6,245.87.5,255,.5s14.15,5.6,14.15,14.06v3c0,8.41-5,14-14.15,14s-14.17-5.56-14.17-14Zm9.45,3c0,4.33,1.78,6.61,4.72,6.61s4.7-2.28,4.7-6.61V14.43c0-4.31-1.78-6.61-4.7-6.61s-4.72,2.3-4.72,6.61Z"/><path class="cls-1" d="M273,31V1h6.93L290.14,15.5h.36V1H299V31H292.1L281.82,16.22h-.36V31Z"/></svg>