<svg id="Layer_1" data-name="Layer 1" xmlns="http://www.w3.org/2000/svg" viewBox="0 0 66.93 10.33"><title>date</title><path d="M2.35,10.16V2.86H2.2L0,4.37V1.76L2.35.16H5.4v10Z"/><path d="M9.4,3.93h1.11c.68,0,1.08-.37,1.08-.89s-.46-.83-1.09-.83a1.08,1.08,0,0,0-1.12,1H6.54C6.62,1.18,8.14,0,10.66,0c2.16,0,3.9,1.05,3.9,2.67a2,2,0,0,1-1.79,2.11v.16a2.18,2.18,0,0,1,2.05,2.38c0,1.95-2.1,3-4.3,3-2.79,0-4.06-1.56-4.06-3.25H9.25c0,.59.64,1,1.35,1a1.06,1.06,0,0,0,1.18-1c0-.5-.41-1-1.23-1H9.4Z"/><path d="M20.71,10.16V2.86h-.14c-.74.5-1.48,1-2.21,1.51V1.76L20.71.16h3.05v10Z"/><path d="M27.26,10.16V2.86h-.15l-2.2,1.51V1.76L27.26.16h3v10Z"/><path d="M34.39,3.49V3.31c0-1.91,1.68-3.31,4-3.31s3.77,1.17,3.77,2.9c0,1.08-.43,1.83-1.84,3.22L38.71,7.67v.12h3.58v2.37H34.61V8.28l3.45-3.35c.79-.76,1.07-1.2,1.07-1.7a.87.87,0,0,0-.93-.89.94.94,0,0,0-1,.94v.21Z"/><path d="M43.06,4.86C43.06,2,44.63,0,47.29,0s4.17,2,4.17,4.86v.57c0,2.57-1.37,4.9-4.24,4.9-2.7,0-4.16-2.05-4.16-4.9Zm3.08.56c0,1.77.48,2.5,1.12,2.5s1.12-.74,1.12-2.5V4.87c0-1.76-.49-2.47-1.12-2.47s-1.12.7-1.12,2.47Z"/><path d="M54.56,10.16V2.86h-.15l-2.2,1.51V1.76L54.56.16h3v10Z"/><path d="M61.72,7.44a.92.92,0,0,0,1,.62c1.27,0,1.52-1.65,1.39-2.68h-.16a2,2,0,0,1-2.12,1.37,3,3,0,0,1-3-3.18c0-2.35,1.76-3.57,3.9-3.57,2.71,0,4.26,2,4.26,5.15s-1.52,5.18-4.26,5.18c-2.46,0-3.67-1.6-3.7-2.89Zm1-5.18a1.08,1.08,0,0,0-1.07,1.2,1.08,1.08,0,1,0,2.15,0A1.09,1.09,0,0,0,62.7,2.26Z"/></svg>